<svg xmlns="http://www.w3.org/2000/svg">
  <symbol id="arrow-left" viewBox="0 0 24 24" fill="none" stroke="currentColor" stroke-width="2" stroke-linecap="round" stroke-linejoin="round">
    <line x1="19" y1="12" x2="5" y2="12"></line>
    <polyline points="12 19 5 12 12 5"></polyline>
  </symbol>

  <symbol id="arrow-right" viewBox="0 0 24 24" fill="none" stroke="currentColor" stroke-width="2" stroke-linecap="round" stroke-linejoin="round">
    <line x1="5" y1="12" x2="19" y2="12"></line>
    <polyline points="12 5 19 12 12 19"></polyline>
  </symbol>

  <symbol id="check" viewBox="0 0 24 24" fill="none" stroke="currentColor" stroke-width="2" stroke-linecap="round" stroke-linejoin="round">
    <polyline points="20 6 9 17 4 12"></polyline>
  </symbol>

  <symbol id="edit" viewBox="0 0 24 24" fill="none" stroke="currentColor" stroke-width="2" stroke-linecap="round" stroke-linejoin="round">
    <path d="M11 4H4a2 2 0 0 0-2 2v14a2 2 0 0 0 2 2h14a2 2 0 0 0 2-2v-7"></path>
    <path d="M18.5 2.5a2.121 2.121 0 0 1 3 3L12 15l-4 1 1-4 9.5-9.5z"></path>
  </symbol>

  <symbol id="google-logomark" viewBox="0 0 24 24" fill="currentColor">
    <path d="M12.2326531,14.28 L12.2326531,9.816 L23.6938776,9.816 C23.8653061,10.572 24,11.28 24,12.276 C24,19.128 19.3102041,24 12.244898,24 C5.48571429,24 -9.66724811e-15,18.624 -9.66724811e-15,12 C-9.66724811e-15,5.376 5.48571429,0 12.244898,0 C15.5510204,0 18.3183673,1.188 20.4367347,3.132 L16.9591837,6.444 C16.077551,5.628 14.5346939,4.668 12.244898,4.668 C8.19183673,4.668 4.88571429,7.968 4.88571429,12.012 C4.88571429,16.056 8.19183673,19.356 12.244898,19.356 C16.9346939,19.356 18.6612245,16.176 18.9795918,14.292 L12.2326531,14.292 L12.2326531,14.28 Z"></path>
  </symbol>

  <symbol id="plus" viewBox="0 0 24 24" fill="none" stroke="currentColor" stroke-width="2" stroke-linecap="round" stroke-linejoin="round">
    <line x1="12" y1="5" x2="12" y2="19"></line>
    <line x1="5" y1="12" x2="19" y2="12"></line>
  </symbol>

  <symbol id="thoughtbot-logomark" viewBox="0 0 90 90">
    <g fill="none" fill-rule="evenodd">
      <circle fill="#e03131" fill-rule="nonzero" cx="45" cy="45" r="45"/>
      <g transform="translate(24 17)">
        <rect fill="#FFF" x="2" y="28" width="38" height="26" rx="2"/>
        <path d="M30 43c-2.1905 0-4-1.8095-4-4s1.8095-4 4-4 4 1.8095 4 4-1.8095 4-4 4zM12 43c-2.1905 0-4-1.8095-4-4s1.8095-4 4-4 4 1.8095 4 4-1.8095 4-4 4z" fill="#e03131"/>
        <path d="M21 19.4c4.5 0 8.6 1.6 11.1 4l2-2.8c-3.1-2.8-7.8-4.6-13-4.6S11.2 17.8 8 20.6l2 2.8c2.4-2.4 6.5-4 11-4" fill="#FFF" fill-rule="nonzero"/>
        <path d="M20.9 11.3c4.9 0 9.5 1.4 12.9 4 .7.5 1.3 1.1 1.9 1.7l2-2.8C33.8 10.4 27.8 8 21 8c-7 0-13.2 2.6-17 6.5l2 2.8c.6-.7 1.3-1.3 2.1-2 3.3-2.5 7.9-4 12.8-4" fill="#FFF" fill-rule="nonzero"/>
        <path d="M20.7 3.3c7.8 0 14.7 2.8 18.8 7.2l2-2.8C36.7 3 29.2 0 20.8 0 12.3 0 4.8 3 0 7.8l2 2.8c4-4.4 10.9-7.3 18.7-7.3" fill="#FFF" fill-rule="nonzero"/>
      </g>
    </g>
  </symbol>
</svg>
