<svg width="21" height="21" viewBox="0 0 21 21" xmlns="http://www.w3.org/2000/svg"><g fill="none" fill-rule="evenodd"><path d="M4.1 12c-.9-1-.9-2.1 0-3.1 1.7-2 4.2-3.1 6.8-3.1.9 0 1.7.1 2.6.4l2.3-2.3C14.3 2.7 12.5 2 10.5 2 5.8 2 2 5.8 2 10.5c0 1.9.7 3.7 1.8 5.1l2.1-2.1c-.6-.4-1.2-.9-1.8-1.5zm13.1-6.7L15.5 7c.9.5 1.7 1.2 2.4 2 .8 1 .8 2 0 3-1.9 2-4.3 3-6.9 3-1.1 0-2.2-.2-3.2-.5l-2.7 2.6c1.5 1.2 3.3 1.9 5.4 1.9 4.7 0 8.5-3.8 8.5-8.5 0-2-.7-3.8-1.8-5.2z"/><path d="M10.5 0C4.7 0 0 4.7 0 10.5S4.7 21 10.5 21 21 16.3 21 10.5 16.3 0 10.5 0zm0 19c-2 0-3.9-.7-5.4-1.9l2.7-2.6c-.7-.2-1.3-.5-1.9-.9l-2.1 2.1C2.7 14.2 2 12.4 2 10.5 2 5.8 5.8 2 10.5 2c2 0 3.8.7 5.3 1.9l-2.3 2.3c.7.2 1.4.5 2 .9l1.7-1.7c1.1 1.4 1.8 3.3 1.8 5.2 0 4.6-3.8 8.4-8.5 8.4z" fill="#CECED6"/><path d="M11 15c2.7 0 5-1 6.8-3 .9-1 .9-2 0-3-.7-.8-1.5-1.5-2.4-2-.6-.4-1.3-.6-2-.9-.8-.2-1.7-.4-2.6-.4-2.7 0-5.2 1.1-6.8 3.1-.9 1-.9 2.1 0 3.1.6.6 1.2 1.1 1.8 1.6.6.4 1.2.7 1.9.9 1.1.4 2.1.6 3.3.6zm-6.1-3.9c-.4-.5-.4-.8 0-1.2 2.9-3.5 8.5-3.5 11.4 0 .4.4.4.8 0 1.2-1.5 1.8-3.5 2.6-5.7 2.7-2.3-.1-4.2-1-5.7-2.7z" fill="#FFF"/><path d="M16.4 11.1c.4-.4.4-.7 0-1.2-2.9-3.5-8.5-3.6-11.4 0-.4.5-.4.8 0 1.2 1.5 1.7 3.4 2.6 5.8 2.7 2.1-.1 4-1 5.6-2.7zm-8.7 1.2c-.7-.6-1.4-1.1-2.3-1.8.9-.7 1.6-1.3 2.3-1.8-.4 1.2-.4 2.3.1 3.4l-.1.2zm2.9.6c-1.3 0-2.3-1.1-2.4-2.3 0-1.3 1-2.4 2.4-2.4 1.3 0 2.4 1.1 2.4 2.4 0 1.2-1.1 2.3-2.4 2.3zm2.8-4.1l.2-.1c.7.5 1.4 1.1 2.3 1.8-.9.7-1.6 1.2-2.3 1.8.4-1.2.4-2.4-.2-3.5z" fill="#ED3E44"/><path d="M10.6 8.1c-1.3 0-2.4 1.1-2.4 2.4 0 1.3 1.1 2.3 2.4 2.3 1.3 0 2.4-1.1 2.4-2.4 0-1.2-1.1-2.3-2.4-2.3zm0 3.5c-.6 0-1-.4-1.1-1.1 0-.6.5-1.1 1.1-1.1.6 0 1.1.5 1.1 1.1.1.6-.5 1.1-1.1 1.1zm5.3-1.1c-.9-.7-1.6-1.2-2.3-1.8l-.2.1c.6 1.1.5 2.2.2 3.4.7-.5 1.4-1 2.3-1.7zM7.7 8.7c-.7.5-1.4 1.1-2.3 1.8.9.7 1.6 1.2 2.3 1.8l.2-.1c-.6-1.2-.6-2.3-.2-3.5z" fill="#FFF"/><path d="M11.7 10.5c0-.6-.5-1.1-1.1-1.1-.6 0-1.1.6-1.1 1.2.1.6.4 1 1.1 1.1.6-.1 1.2-.6 1.1-1.2z" fill="#ED3E44"/></g></svg>