<svg width="21" height="21" viewBox="0 0 21 21" xmlns="http://www.w3.org/2000/svg"><g fill="none" fill-rule="evenodd"><circle fill="#ED3E44" cx="10.5" cy="10.5" r="10.5"/><path d="M16.4 11.1c.4-.4.4-.7 0-1.2-2.9-3.5-8.5-3.6-11.4 0-.4.5-.4.8 0 1.2 1.5 1.7 3.4 2.6 5.8 2.7 2.1-.1 4-1 5.6-2.7zm-8.7 1.2c-.7-.6-1.4-1.1-2.3-1.8.9-.7 1.6-1.3 2.3-1.8-.4 1.2-.4 2.3.1 3.4l-.1.2zm2.9.6c-1.3 0-2.3-1.1-2.4-2.3 0-1.3 1-2.4 2.4-2.4 1.3 0 2.4 1.1 2.4 2.4 0 1.2-1.1 2.3-2.4 2.3zm2.8-4.1l.2-.1c.7.5 1.4 1.1 2.3 1.8-.9.7-1.6 1.2-2.3 1.8.4-1.2.4-2.4-.2-3.5z" fill="#FFF"/><path d="M11.7 10.5c0-.6-.5-1.1-1.1-1.1-.6 0-1.1.6-1.1 1.2.1.6.4 1 1.1 1.1.6-.1 1.2-.6 1.1-1.2z" fill="#FFF"/></g></svg>